{"title":"Thanga Magan 2015 Tamil Movies PDVDRip XviD AAC New +Sample ☻rDX","uid":13039294,"size":740475378,"categoryP":"video","categoryS":"movies","magnet":"?xt=urn:btih:5e54eba305b86cd225bb47bd2efcba3511999901&amp;dn=Thanga+Magan+2015+Tamil+Movies+PDVDRip+XviD+AAC+New+%2BSample+%E2%98%BBrDX&amp;tr=udp%3A%2F%2Ftracker.leechers-paradise.org%3A6969&amp;tr=udp%3A%2F%2Fzer0day.ch%3A1337&amp;tr=udp%3A%2F%2Fopen.demonii.com%3A1337&amp;tr=udp%3A%2F%2Ftracker.coppersurfer.tk%3A6969&amp;tr=udp%3A%2F%2Fexodus.desync.com%3A6969","seeders":7,"leechers":4,"uploader":"basicssom","files":2,"time":1450521900,"description":"----------------------------------------------------------------\r\nThanga Magan 2015 Tamil Movies PDVDRip XviD AAC New Source with Sample ~ ☻rDX☻\r\n\r\nSCREEN SHOTS &amp; POSTER:\r\n  \nhttp://doctorhosts.com/2015/12/ThangaMagan/11.html  \nhttp://doctorhosts.com/2015/12/ThangaMagan/1.html  \nhttp://doctorhosts.com/2015/12/ThangaMagan/2.html  \nhttp://doctorhosts.com/2015/12/ThangaMagan/3.html  \nhttp://doctorhosts.com/2015/12/ThangaMagan/4.html  \nhttp://doctorhosts.com/2015/12/ThangaMagan/5.html  \nhttp://doctorhosts.com/2015/12/ThangaMagan/6.html  \nhttp://doctorhosts.com/2015/12/ThangaMagan/7.html  \nhttp://doctorhosts.com/2015/12/ThangaMagan/8.html  \nhttp://doctorhosts.com/2015/12/ThangaMagan/9.html  \nhttp://doctorhosts.com/2015/12/ThangaMagan/10.html\r\n\r\nFormat                                   : Matroska\r\nFormat version                           : Version 4 / Version 2\r\nFile size                                : 700 MiB\r\nDuration                                 : 1h 58mn\r\nOverall bit rate                         : 826 Kbps\r\nMovie name                               : Thanga Magan 2015 Tamil Movies PDVDRip XviD AAC New Source ~ rDX ~\r\n\r\nVideo\r\nID                                       : 1\r\nFormat                                   : AVC\r\nFormat/Info                              : Advanced Video Codec\r\nFormat profile                           :   \r\nFormat settings, CABAC                   : Yes\r\nFormat settings, ReFrames                : 4 frames\r\nCodec ID                                 : V_MPEG4/ISO/AVC\r\nDuration                                 : 1h 58mn\r\nBit rate                                 : 728 Kbps\r\nWidth                                    : 608 pixels\r\nHeight                                   : 256 pixels\r\nDisplay aspect ratio                     : 2.40:1\r\nFrame rate mode                          : Constant\r\nFrame rate                               : 25.000 fps\r\nColor space                              : YUV\r\nChroma subsampling                       : 4:2:0\r\nBit depth                                : 8 bits\r\nScan type                                : Progressive\r\nBits/(Pixel*Frame)                       : 0.187\r\nStream size                              : 605 MiB (86%)\r\nTitle                                    : ~ rDX ~\r\nWriting library                          : XviD\r\nLanguage                                 : Tamil\r\nDefault                                  : Yes\r\nForced                                   : Yes\r\n\r\nAudio\r\nID                                       : 2\r\nFormat                                   : MPEG Audio\r\nFormat version                           : Version 1\r\nFormat profile                           : Layer 3\r\nMode                                     : Joint stereo\r\nMode extension                           : MS Stereo\r\nCodec ID                                 : A_MPEG/L3\r\nCodec ID/Hint                            : MP3\r\nDuration                                 : 1h 58mn\r\nBit rate mode                            : Constant\r\nBit rate                                 : 96.0 Kbps\r\nChannel(s)                               : 2 channels\r\nSampling rate                            : 48.0 KHz\r\nCompression mode                         : Lossy\r\nStream size                              : 81.4 MiB (12%)\r\nTitle                                    : ~ rDX ~\r\nLanguage                                 : Tamil\r\nDefault                                  : Yes\r\nForced                                   : Yes\r\n\r\nIMDB                                      \nhttp://www.imdb.com/title/tt5124096/","torrent":{"xt":"urn:btih:5e54eba305b86cd225bb47bd2efcba3511999901","amp;dn":"Thanga+Magan+2015+Tamil+Movies+PDVDRip+XviD+AAC+New+%2BSample+%E2%98%BBrDX","amp;tr":["udp%3A%2F%2Ftracker.leechers-paradise.org%3A6969","udp%3A%2F%2Fzer0day.ch%3A1337","udp%3A%2F%2Fopen.demonii.com%3A1337","udp%3A%2F%2Ftracker.coppersurfer.tk%3A6969","udp%3A%2F%2Fexodus.desync.com%3A6969"],"infoHash":"5e54eba305b86cd225bb47bd2efcba3511999901","infoHashBuffer":{"type":"Buffer","data":[94,84,235,163,5,184,108,210,37,187,71,189,46,252,186,53,17,153,153,1]},"announce":[],"urlList":[]}}